<svg xmlns="http://www.w3.org/2000/svg" width="50.429" height="35.36" viewBox="0 0 50.429 35.36">
  <g id="Group_93" data-name="Group 93" transform="translate(0 0)">
    <path id="Path_1195" data-name="Path 1195" d="M199.569,121.181c-1.052,3.883-1.982,8.575-2.589,11.609-.121.445-.2.85-.283,1.254h-3.479c.121-.566.283-1.214.4-1.942.769-3.762,1.578-7.686,2.427-10.962-.809,0-1.658,0-2.508.041l.85-3.317h2.589a20.45,20.45,0,0,1,1.942-4.611,5.262,5.262,0,0,1,2.589-2.306,4.367,4.367,0,0,1,3.2-.081c2.467.93,3.317,3.56,2.912,5.987l-3.357-.162c.243-1.335-.243-2.467-.728-2.629-.566-.2-1.254.162-1.739.971a15.1,15.1,0,0,0-1.213,2.832c1.092,0,1.861,0,3.074-.04l-.688,3.277Z" transform="translate(-174.953 -110.309)" fill="#2b2b2b"/>
    <path id="Path_1196" data-name="Path 1196" d="M240.98,119.074l3.115,1.052a44.814,44.814,0,0,1-3.641,8.333,11.3,11.3,0,0,1-2.346,2.912,4.79,4.79,0,0,1-3.074,1.214h-.243a3.818,3.818,0,0,1-3.4-2.386,8.806,8.806,0,0,1-.526-3.964c.121-2.144.377-2.746,1.348-6.832H221.9l.849-3.317L233.065,116c.243-1.052,1.4-6.477,1.645-7.447h3.519q-.061.243-.242.849c-.162.769-1.241,5.91-1.443,6.638h2.508l-.688,3.357h-2.67c-1.254,5.218-1.348,5.335-1.429,6.994a5.345,5.345,0,0,0,.243,2.427c.162.364.283.364.486.364.485.04,1.416-.607,2.548-2.467a43.2,43.2,0,0,0,3.438-7.645" transform="translate(-199.523 -108.557)" fill="#2b2b2b"/>
    <path id="Path_1197" data-name="Path 1197" d="M89.761,165.656A28.8,28.8,0,0,1,83.37,176.74a22.089,22.089,0,0,1-4.975,3.843,18.961,18.961,0,0,1-2.022,4.652c-1.942,2.993-4.409,3.964-6.432,3.8a5.171,5.171,0,0,1-2.953-1.254,3.983,3.983,0,0,1-1.294-2.912c-.04-1.5.849-3.115,2.993-4.288a13.6,13.6,0,0,1,1.982-.809c.647-.2,1.254-.364,1.861-.526a14.922,14.922,0,0,0,3.034-1.052q.364-1.456.728-3.034c-1.7,1.739-3.721,2.751-6.027,2.144-2.387-.607-3.6-3.034-3.56-5.825a12.1,12.1,0,0,1,.526-3.357,13.1,13.1,0,0,1,1.5-3.236c1.739-2.71,4.288-4.45,8.171-3.277a5.2,5.2,0,0,1,1.942,1.254c.2-.526.364-1.052.566-1.578h3.479a66.935,66.935,0,0,0-2.387,9.951l-.849,4.369c.445-.4.89-.809,1.294-1.214a28.192,28.192,0,0,0,5.825-9.749ZM74.107,182.363a7.275,7.275,0,0,0-.769.2,9.445,9.445,0,0,0-1.618.445,6.1,6.1,0,0,0-1.416.566c-.89.485-1.254.931-1.254,1.294a.725.725,0,0,0,.243.4,1.51,1.51,0,0,0,.93.364c.93.081,2.184-.485,3.276-2.225a8.851,8.851,0,0,0,.607-1.052M77.141,167.4a3,3,0,0,0-.2-1.416,1.87,1.87,0,0,0-1.011-1.133c-1.78-.526-3.236.445-4.207,1.982a8.827,8.827,0,0,0-1.052,2.346,7.446,7.446,0,0,0-.4,2.427c-.041,1.254.243,2.265.849,2.427,1.011.243,2.1-.485,3.074-1.578a20.44,20.44,0,0,0,2.953-5.056" transform="translate(-65.692 -153.694)" fill="#2b2b2b"/>
    <path id="Path_1198" data-name="Path 1198" d="M376.889,240.819a2.929,2.929,0,1,0,2.929-2.929,2.929,2.929,0,0,0-2.929,2.929" transform="translate(-332.318 -219.366)" fill="#f4622e"/>
  </g>
</svg>
